<?xml version="1.0" standalone="yes"?>
<svg xmlns="http://www.w3.org/2000/svg" width="512" height="512">
<path style="fill:#ffffff; stroke:none;" d="M0 0L0 25L1 25C7.73827 15.9516 18.9186 18 29 18L101 18L401 18L480 18C490.693 18 503.825 15.3652 511 25L512 25L512 0L0 0z"/>
<path style="fill:#010101; stroke:none;" d="M37 419C27.5481 419 8.2344 415.333 1.89352 424.189C-1.28468 428.628 0 435.841 0 441C0 453.727 -6.65079 490.659 10 493.671C22.2933 495.894 36.5109 494 49 494L127 494L371 494L466 494C477.211 494 495.793 497.538 505.96 492.427C512.222 489.28 512 483.071 512 477L512 439C512 433.927 513.088 427.448 509.427 423.343C502.48 415.552 484.385 419 475 419C475 314.49 471.912 209.458 475.015 105C475.248 97.1825 480.395 90.58 484.15 84C490.99 72.0174 497.716 59.971 504.579 48C508.494 41.1707 515.788 31.0997 510.258 23.108C505.032 15.5557 491.866 18 484 18L412 18L111 18L29 18C20.7983 18 5.87992 15.2153 1.17901 24.044C-3.30536 32.466 4.00245 42.0443 8 49C14.8751 60.9626 21.5597 73.0314 28.4213 85C32.0329 91.2996 36.7621 97.511 36.9846 105C40.0877 209.458 37 314.49 37 419z"/>
<path style="fill:#ffffff; stroke:none;" d="M0 35L0 426L1 426C9.51786 415.834 25.0177 419 37 419L37 196L37 132L36.6096 100L24.4244 77L0 35M511 35L485.85 80L475.39 100L475 134L475 202L475 419C486.982 419 502.482 415.834 511 426L512 426L512 149L512 70L511 35M32 42L49.2307 73L57.213 83.6821L93 84L173 84L368 84L427 84L454.787 83.6821L462.769 73L480 42L32 42M60 107L60 419L102 419L102 255L102 212C102 206.235 100.537 198.094 103.742 193.005C108.723 185.097 117.107 186.791 125 185.561C137.079 183.678 148.903 179.772 160 174.691C177.883 166.503 194.919 156.429 212 146.719C225.458 139.068 240.103 130.849 256 130.849C288.552 130.849 321.666 160.033 350 173.742C361.621 179.363 374.229 183.57 387 185.561C394.893 186.791 403.277 185.097 408.258 193.005C411.463 198.094 410 206.235 410 212L410 255L410 419L452 419L452 107L60 107M125 419L191 419C183.986 403.24 176.324 392.02 175.09 374C173.821 355.474 181.085 336.269 178.711 318C177.183 306.244 159.155 298.754 163.355 287C171.041 265.489 197.485 264.66 216 267C216.234 238.718 234.501 212.258 263 206.805C271.432 205.191 284.976 204.3 291.945 210.279C302.733 219.534 291.048 227.248 286.92 236C283.858 242.491 285.628 248.92 288.785 255C307.761 291.542 355.898 316.43 349.576 364C348.46 372.391 346.94 380.09 343.796 388C338.964 400.158 330.344 408.564 323 419L387 419L387 270L387 229C387 224.087 388.588 215.798 386.397 211.317C384.54 207.52 374.744 207.306 371 206.373C357.861 203.1 345.095 197.797 333 191.753C315.641 183.079 299.336 172.444 282 163.753C274.205 159.845 265.003 154.181 256 154.181C246.997 154.181 237.795 159.845 230 163.753C210.995 173.28 193.251 185.126 174 194.219C163.45 199.202 152.327 203.551 141 206.373C137.277 207.301 128.473 207.455 126.028 210.6C123.466 213.894 125 222.035 125 226L125 265L125 419M262 231C246.437 238.611 240.232 252.239 239.09 269C238.487 277.836 243.731 290.117 234.956 296.297C226.91 301.963 220.314 294.359 213 291.465C206.173 288.763 200.097 289.103 193 290C197.056 300.717 201.973 308.048 202.406 320C203.5 350.216 192.075 376.553 210 404L211 404C204.627 371.137 221.3 352.82 236.91 326C241.181 318.662 240.67 306.431 249.005 302.318C256.192 298.771 262.966 304.54 267.985 309.171C281.367 321.517 286.224 338.399 284 356C309.775 346.091 311.548 383.817 307 400C312.999 395.738 317.066 389.597 320.215 383C343.194 334.87 290.904 304.751 269.604 269C265.344 261.849 261.612 253.431 261.094 245C260.806 240.315 263.062 235.494 262 231M258 336C248.422 356.247 229.744 370.332 233.3 395C234.253 401.611 238.303 415.617 245.105 418.397C249.041 420.005 254.818 419 259 419C262.926 419 268.347 419.941 271.671 417.397C278.777 411.957 283.06 398.382 285 390C280.331 390.79 275.813 392.669 271 392.544C268.353 392.475 265.545 391.956 263 391.239C236.451 383.764 270.699 353.066 258 336M23 443L23 470L489 470L489 443L23 443M0 487L0 512L512 512L512 487L511 487C503.215 496.665 490.201 494 479 494L396 494L107 494L36 494C22.5464 494 10.8003 496.023 0 487z"/>
</svg>
